<mxfile host="app.diagrams.net" modified="2022-06-23T02:54:14.108Z" agent="5.0 (Macintosh; Intel Mac OS X 10_15_7) AppleWebKit/537.36 (KHTML, like Gecko) Chrome/102.0.0.0 Safari/537.36" etag="7L43U9599aktjNxJGhyl" version="19.0.2" type="github">
  <diagram id="C5RBs43oDa-KdzZeNtuy" name="Page-1">
    <mxGraphModel dx="2227" dy="702" grid="1" gridSize="10" guides="1" tooltips="1" connect="1" arrows="1" fold="1" page="1" pageScale="1" pageWidth="827" pageHeight="1169" math="0" shadow="0">
      <root>
        <mxCell id="WIyWlLk6GJQsqaUBKTNV-0" />
        <mxCell id="WIyWlLk6GJQsqaUBKTNV-1" parent="WIyWlLk6GJQsqaUBKTNV-0" />
        <mxCell id="gvr0-aAgRpoHnD6zwqF0-4" value="" style="edgeStyle=orthogonalEdgeStyle;rounded=0;orthogonalLoop=1;jettySize=auto;html=1;" edge="1" parent="WIyWlLk6GJQsqaUBKTNV-1" source="gvr0-aAgRpoHnD6zwqF0-1" target="gvr0-aAgRpoHnD6zwqF0-14">
          <mxGeometry relative="1" as="geometry" />
        </mxCell>
        <mxCell id="gvr0-aAgRpoHnD6zwqF0-1" value="填写转账信息&lt;br&gt;EthAddress&lt;br&gt;Amount" style="whiteSpace=wrap;html=1;strokeWidth=2;" vertex="1" parent="WIyWlLk6GJQsqaUBKTNV-1">
          <mxGeometry x="330" y="430" width="120" height="60" as="geometry" />
        </mxCell>
        <mxCell id="gvr0-aAgRpoHnD6zwqF0-19" value="" style="edgeStyle=orthogonalEdgeStyle;rounded=0;orthogonalLoop=1;jettySize=auto;html=1;" edge="1" parent="WIyWlLk6GJQsqaUBKTNV-1" source="gvr0-aAgRpoHnD6zwqF0-3" target="gvr0-aAgRpoHnD6zwqF0-18">
          <mxGeometry relative="1" as="geometry" />
        </mxCell>
        <mxCell id="gvr0-aAgRpoHnD6zwqF0-3" value="签名并转账" style="rounded=0;whiteSpace=wrap;html=1;" vertex="1" parent="WIyWlLk6GJQsqaUBKTNV-1">
          <mxGeometry x="330" y="710" width="120" height="60" as="geometry" />
        </mxCell>
        <mxCell id="gvr0-aAgRpoHnD6zwqF0-7" value="结束" style="strokeWidth=2;html=1;shape=mxgraph.flowchart.start_1;whiteSpace=wrap;" vertex="1" parent="WIyWlLk6GJQsqaUBKTNV-1">
          <mxGeometry x="340" y="960" width="100" height="60" as="geometry" />
        </mxCell>
        <mxCell id="gvr0-aAgRpoHnD6zwqF0-9" value="" style="edgeStyle=orthogonalEdgeStyle;rounded=0;orthogonalLoop=1;jettySize=auto;html=1;" edge="1" parent="WIyWlLk6GJQsqaUBKTNV-1" source="gvr0-aAgRpoHnD6zwqF0-8" target="gvr0-aAgRpoHnD6zwqF0-1">
          <mxGeometry relative="1" as="geometry" />
        </mxCell>
        <mxCell id="gvr0-aAgRpoHnD6zwqF0-11" style="edgeStyle=orthogonalEdgeStyle;rounded=0;orthogonalLoop=1;jettySize=auto;html=1;" edge="1" parent="WIyWlLk6GJQsqaUBKTNV-1" source="gvr0-aAgRpoHnD6zwqF0-8" target="gvr0-aAgRpoHnD6zwqF0-10">
          <mxGeometry relative="1" as="geometry" />
        </mxCell>
        <mxCell id="gvr0-aAgRpoHnD6zwqF0-29" style="edgeStyle=orthogonalEdgeStyle;rounded=0;orthogonalLoop=1;jettySize=auto;html=1;" edge="1" parent="WIyWlLk6GJQsqaUBKTNV-1" source="gvr0-aAgRpoHnD6zwqF0-8" target="gvr0-aAgRpoHnD6zwqF0-28">
          <mxGeometry relative="1" as="geometry" />
        </mxCell>
        <mxCell id="gvr0-aAgRpoHnD6zwqF0-8" value="开始" style="rounded=1;whiteSpace=wrap;html=1;" vertex="1" parent="WIyWlLk6GJQsqaUBKTNV-1">
          <mxGeometry x="330" y="280" width="120" height="60" as="geometry" />
        </mxCell>
        <mxCell id="gvr0-aAgRpoHnD6zwqF0-13" value="" style="edgeStyle=orthogonalEdgeStyle;rounded=0;orthogonalLoop=1;jettySize=auto;html=1;" edge="1" parent="WIyWlLk6GJQsqaUBKTNV-1" source="gvr0-aAgRpoHnD6zwqF0-10" target="gvr0-aAgRpoHnD6zwqF0-12">
          <mxGeometry relative="1" as="geometry" />
        </mxCell>
        <mxCell id="gvr0-aAgRpoHnD6zwqF0-10" value="设置Service服务账号（这是一个Ares本地收款账号）" style="rounded=0;whiteSpace=wrap;html=1;" vertex="1" parent="WIyWlLk6GJQsqaUBKTNV-1">
          <mxGeometry x="550" y="430" width="120" height="60" as="geometry" />
        </mxCell>
        <mxCell id="gvr0-aAgRpoHnD6zwqF0-22" value="" style="edgeStyle=orthogonalEdgeStyle;rounded=0;orthogonalLoop=1;jettySize=auto;html=1;" edge="1" parent="WIyWlLk6GJQsqaUBKTNV-1" source="gvr0-aAgRpoHnD6zwqF0-12" target="gvr0-aAgRpoHnD6zwqF0-23">
          <mxGeometry relative="1" as="geometry" />
        </mxCell>
        <mxCell id="gvr0-aAgRpoHnD6zwqF0-26" value="是" style="edgeLabel;html=1;align=center;verticalAlign=middle;resizable=0;points=[];" vertex="1" connectable="0" parent="gvr0-aAgRpoHnD6zwqF0-22">
          <mxGeometry x="0.05" y="-3" relative="1" as="geometry">
            <mxPoint as="offset" />
          </mxGeometry>
        </mxCell>
        <mxCell id="gvr0-aAgRpoHnD6zwqF0-25" value="否" style="edgeStyle=orthogonalEdgeStyle;rounded=0;orthogonalLoop=1;jettySize=auto;html=1;entryX=1;entryY=0.5;entryDx=0;entryDy=0;entryPerimeter=0;" edge="1" parent="WIyWlLk6GJQsqaUBKTNV-1" source="gvr0-aAgRpoHnD6zwqF0-12" target="gvr0-aAgRpoHnD6zwqF0-21">
          <mxGeometry relative="1" as="geometry">
            <Array as="points">
              <mxPoint x="770" y="590" />
              <mxPoint x="770" y="860" />
            </Array>
          </mxGeometry>
        </mxCell>
        <mxCell id="gvr0-aAgRpoHnD6zwqF0-12" value="是否是组委会成员提交" style="rhombus;whiteSpace=wrap;html=1;" vertex="1" parent="WIyWlLk6GJQsqaUBKTNV-1">
          <mxGeometry x="570" y="550" width="80" height="80" as="geometry" />
        </mxCell>
        <mxCell id="gvr0-aAgRpoHnD6zwqF0-15" value="" style="edgeStyle=orthogonalEdgeStyle;rounded=0;orthogonalLoop=1;jettySize=auto;html=1;" edge="1" parent="WIyWlLk6GJQsqaUBKTNV-1" source="gvr0-aAgRpoHnD6zwqF0-14" target="gvr0-aAgRpoHnD6zwqF0-3">
          <mxGeometry relative="1" as="geometry" />
        </mxCell>
        <mxCell id="gvr0-aAgRpoHnD6zwqF0-16" value="是" style="edgeLabel;html=1;align=center;verticalAlign=middle;resizable=0;points=[];" vertex="1" connectable="0" parent="gvr0-aAgRpoHnD6zwqF0-15">
          <mxGeometry x="0.2286" y="2" relative="1" as="geometry">
            <mxPoint as="offset" />
          </mxGeometry>
        </mxCell>
        <mxCell id="gvr0-aAgRpoHnD6zwqF0-17" style="edgeStyle=orthogonalEdgeStyle;rounded=0;orthogonalLoop=1;jettySize=auto;html=1;entryX=0;entryY=0.5;entryDx=0;entryDy=0;entryPerimeter=0;" edge="1" parent="WIyWlLk6GJQsqaUBKTNV-1" source="gvr0-aAgRpoHnD6zwqF0-14" target="gvr0-aAgRpoHnD6zwqF0-7">
          <mxGeometry relative="1" as="geometry">
            <Array as="points">
              <mxPoint x="240" y="600" />
              <mxPoint x="240" y="990" />
            </Array>
          </mxGeometry>
        </mxCell>
        <mxCell id="gvr0-aAgRpoHnD6zwqF0-27" value="否" style="edgeLabel;html=1;align=center;verticalAlign=middle;resizable=0;points=[];" vertex="1" connectable="0" parent="gvr0-aAgRpoHnD6zwqF0-17">
          <mxGeometry x="-0.25" y="1" relative="1" as="geometry">
            <mxPoint as="offset" />
          </mxGeometry>
        </mxCell>
        <mxCell id="gvr0-aAgRpoHnD6zwqF0-14" value="验证以太坊地址格式是否正确" style="rhombus;whiteSpace=wrap;html=1;" vertex="1" parent="WIyWlLk6GJQsqaUBKTNV-1">
          <mxGeometry x="350" y="560" width="80" height="80" as="geometry" />
        </mxCell>
        <mxCell id="gvr0-aAgRpoHnD6zwqF0-20" value="" style="edgeStyle=orthogonalEdgeStyle;rounded=0;orthogonalLoop=1;jettySize=auto;html=1;" edge="1" parent="WIyWlLk6GJQsqaUBKTNV-1" source="gvr0-aAgRpoHnD6zwqF0-18" target="gvr0-aAgRpoHnD6zwqF0-7">
          <mxGeometry relative="1" as="geometry" />
        </mxCell>
        <mxCell id="gvr0-aAgRpoHnD6zwqF0-18" value="记录到链上存储中，并且发送Event" style="rounded=0;whiteSpace=wrap;html=1;" vertex="1" parent="WIyWlLk6GJQsqaUBKTNV-1">
          <mxGeometry x="330" y="830" width="120" height="60" as="geometry" />
        </mxCell>
        <mxCell id="gvr0-aAgRpoHnD6zwqF0-21" value="结束" style="strokeWidth=2;html=1;shape=mxgraph.flowchart.start_1;whiteSpace=wrap;" vertex="1" parent="WIyWlLk6GJQsqaUBKTNV-1">
          <mxGeometry x="560" y="830" width="100" height="60" as="geometry" />
        </mxCell>
        <mxCell id="gvr0-aAgRpoHnD6zwqF0-24" value="" style="edgeStyle=orthogonalEdgeStyle;rounded=0;orthogonalLoop=1;jettySize=auto;html=1;" edge="1" parent="WIyWlLk6GJQsqaUBKTNV-1" source="gvr0-aAgRpoHnD6zwqF0-23" target="gvr0-aAgRpoHnD6zwqF0-21">
          <mxGeometry relative="1" as="geometry" />
        </mxCell>
        <mxCell id="gvr0-aAgRpoHnD6zwqF0-23" value="记录到链上存储中，并且发送Event" style="rounded=0;whiteSpace=wrap;html=1;" vertex="1" parent="WIyWlLk6GJQsqaUBKTNV-1">
          <mxGeometry x="550" y="710" width="120" height="60" as="geometry" />
        </mxCell>
        <mxCell id="gvr0-aAgRpoHnD6zwqF0-31" value="" style="edgeStyle=orthogonalEdgeStyle;rounded=0;orthogonalLoop=1;jettySize=auto;html=1;" edge="1" parent="WIyWlLk6GJQsqaUBKTNV-1" source="gvr0-aAgRpoHnD6zwqF0-28" target="gvr0-aAgRpoHnD6zwqF0-30">
          <mxGeometry relative="1" as="geometry" />
        </mxCell>
        <mxCell id="gvr0-aAgRpoHnD6zwqF0-28" value="设置核销名单&lt;br&gt;[(Account,Balance)]" style="rounded=0;whiteSpace=wrap;html=1;" vertex="1" parent="WIyWlLk6GJQsqaUBKTNV-1">
          <mxGeometry x="10" y="430" width="120" height="60" as="geometry" />
        </mxCell>
        <mxCell id="gvr0-aAgRpoHnD6zwqF0-36" value="" style="edgeStyle=orthogonalEdgeStyle;rounded=0;orthogonalLoop=1;jettySize=auto;html=1;" edge="1" parent="WIyWlLk6GJQsqaUBKTNV-1" source="gvr0-aAgRpoHnD6zwqF0-30" target="gvr0-aAgRpoHnD6zwqF0-35">
          <mxGeometry relative="1" as="geometry" />
        </mxCell>
        <mxCell id="gvr0-aAgRpoHnD6zwqF0-38" value="全部匹配" style="edgeLabel;html=1;align=center;verticalAlign=middle;resizable=0;points=[];" vertex="1" connectable="0" parent="gvr0-aAgRpoHnD6zwqF0-36">
          <mxGeometry x="0.0167" y="-2" relative="1" as="geometry">
            <mxPoint as="offset" />
          </mxGeometry>
        </mxCell>
        <mxCell id="gvr0-aAgRpoHnD6zwqF0-39" style="edgeStyle=orthogonalEdgeStyle;rounded=0;orthogonalLoop=1;jettySize=auto;html=1;entryX=0;entryY=0.5;entryDx=0;entryDy=0;entryPerimeter=0;" edge="1" parent="WIyWlLk6GJQsqaUBKTNV-1" source="gvr0-aAgRpoHnD6zwqF0-30" target="gvr0-aAgRpoHnD6zwqF0-32">
          <mxGeometry relative="1" as="geometry">
            <Array as="points">
              <mxPoint x="-130" y="600" />
              <mxPoint x="-130" y="900" />
            </Array>
          </mxGeometry>
        </mxCell>
        <mxCell id="gvr0-aAgRpoHnD6zwqF0-40" value="有一个不匹配则本次&lt;br&gt;核销全部拒绝" style="edgeLabel;html=1;align=center;verticalAlign=middle;resizable=0;points=[];" vertex="1" connectable="0" parent="gvr0-aAgRpoHnD6zwqF0-39">
          <mxGeometry x="0.0614" y="3" relative="1" as="geometry">
            <mxPoint y="1" as="offset" />
          </mxGeometry>
        </mxCell>
        <mxCell id="gvr0-aAgRpoHnD6zwqF0-30" value="验证核销的名单账号和对应Balance是否匹配" style="rhombus;whiteSpace=wrap;html=1;" vertex="1" parent="WIyWlLk6GJQsqaUBKTNV-1">
          <mxGeometry x="30" y="560" width="80" height="80" as="geometry" />
        </mxCell>
        <mxCell id="gvr0-aAgRpoHnD6zwqF0-32" value="结束" style="strokeWidth=2;html=1;shape=mxgraph.flowchart.start_1;whiteSpace=wrap;" vertex="1" parent="WIyWlLk6GJQsqaUBKTNV-1">
          <mxGeometry x="20" y="870" width="100" height="60" as="geometry" />
        </mxCell>
        <mxCell id="gvr0-aAgRpoHnD6zwqF0-37" value="" style="edgeStyle=orthogonalEdgeStyle;rounded=0;orthogonalLoop=1;jettySize=auto;html=1;" edge="1" parent="WIyWlLk6GJQsqaUBKTNV-1" source="gvr0-aAgRpoHnD6zwqF0-35" target="gvr0-aAgRpoHnD6zwqF0-32">
          <mxGeometry relative="1" as="geometry" />
        </mxCell>
        <mxCell id="gvr0-aAgRpoHnD6zwqF0-35" value="删除已经核销的转账名单" style="rounded=0;whiteSpace=wrap;html=1;" vertex="1" parent="WIyWlLk6GJQsqaUBKTNV-1">
          <mxGeometry x="10" y="710" width="120" height="60" as="geometry" />
        </mxCell>
      </root>
    </mxGraphModel>
  </diagram>
</mxfile>
